<svg id="DM_20210517164923_001" xmlns="http://www.w3.org/2000/svg" width="120" height="60" viewBox="0 0 120 60">
  <path id="패스_6" data-name="패스 6" d="M119.983,60H0V0H120V60Z" fill="#0058ab" fill-rule="evenodd"/>
  <path id="패스_7" data-name="패스 7" d="M2,30C2,45.3,26.307,58,60.008,58S118,45.3,118,30,93.693,2,60.008,2,2,14.7,2,30Z" fill="#fbd914" fill-rule="evenodd"/>
  <path id="패스_8" data-name="패스 8" d="M55.4,26a8.958,8.958,0,0,0,1.32,1.245H43.24a4.362,4.362,0,0,0-1.09-1.945q-1.832-2.172-3.659-4.35v5.05a2.112,2.112,0,0,0,.268,1.245H27.53a2.113,2.113,0,0,0,.268-1.245V14a2.11,2.11,0,0,0-.268-1.245H38.759A2.112,2.112,0,0,0,38.491,14v5.246s3.587-3.665,4.409-4.519c.625-.643,1.392-1.553,1.392-1.972H56a11.9,11.9,0,0,0-2.427,1.874l-4.285,4.1S54.682,25.179,55.4,26Zm3.535-12V26a2.112,2.112,0,0,1-.268,1.245H80.334v-4.03a4.153,4.153,0,0,1-1.589.21H69.623v-1.9h8.765v-3.05H69.623V16.56h9.122a4.43,4.43,0,0,1,1.589.2V12.741H58.663A2.177,2.177,0,0,1,58.931,14ZM110.36,26a3.384,3.384,0,0,0,.876,1.245H99.489A2.215,2.215,0,0,0,99.131,26s-.178-.336-.428-.826l-.107-.21H91.83l-.107.224s-.2.406-.375.826a2.305,2.305,0,0,0-.3,1.245H81.78a3.492,3.492,0,0,0,.838-1.245l5.552-12a2.183,2.183,0,0,0,.321-1.245h15.656c-.143.42.142.825.339,1.245.463.91,5.48,11.178,5.873,11.99ZM97.114,21.9l-1.642-3.357a6.264,6.264,0,0,1-.357-.952,4.674,4.674,0,0,1-.321.952c-.054.14-.75,1.609-1.553,3.357h3.873Zm-74.9-9.15H10A2.115,2.115,0,0,1,10.268,14V26A2.112,2.112,0,0,1,10,27.249H22.211A2.113,2.113,0,0,1,21.943,26V14a2.11,2.11,0,0,1,.268-1.245Zm84.4,1.148a2.082,2.082,0,0,1,2.267-1.9h.162a2.192,2.192,0,0,1,2.427,1.833v.07a2.187,2.187,0,0,1-2.374,1.959,2.256,2.256,0,0,1-2.5-1.861A.2.2,0,0,0,106.611,13.9Zm.482,0a2,2,0,0,0,3.892,0,1.778,1.778,0,0,0-1.945-1.525,1.75,1.75,0,0,0-1.947,1.413V13.9Zm1.465,1.133h-.428V12.741h1.089a.843.843,0,0,1,.909.741.765.765,0,0,1-.517.672l.625.881h-.482l-.572-.811h-.624Zm0-1.133h.589c.285.014.536-.154.536-.378a.448.448,0,0,0-.482-.42h-.643Z" transform="translate(0 9.702)" fill="#0058a3"/>
</svg>
